P3
# Created by GIMP version 2.10.20 PNM plug-in
4 4
255
0
51
64
12
25
89
64
0
38
89
0
0
0
64
128
25
64
153
89
51
89
102
38
38
0
76
115
25
115
153
76
140
153
76
115
115
0
38
38
25
76
76
76
128
128
76
115
115
