P3
# Created by GIMP version 2.10.20 PNM plug-in
4 4
255
0
105
0
0
0
105
0
0
0
105
0
0
0
0
105
0
0
105
105
0
0
105
0
0
0
105
105
0
105
105
0
105
105
0
105
105
0
0
0
0
0
0
105
105
105
105
105
105
