P3
# Created by GIMP version 2.10.20 PNM plug-in
4 4
255
205
205
205
0
0
0
0
0
0
0
0
0
0
0
0
0
0
0
0
0
0
0
0
0
205
205
205
205
205
205
205
205
205
205
205
205
0
0
0
0
0
0
205
205
205
205
205
205
