P3
# Created by GIMP version 2.10.20 PNM plug-in
4 4
255
0
128
76
0
0
205
153
0
0
255
0
0
0
102
255
0
128
255
255
51
153
255
25
0
0
179
255
25
255
255
179
255
255
179
255
255
0
51
0
0
153
102
205
255
255
205
255
255
