P3
# Created by GIMP version 2.10.20 PNM plug-in
4 4
255
146
146
146
14
14
14
0
0
0
43
43
43
14
14
14
14
14
14
43
43
43
43
43
43
161
161
161
161
161
161
161
161
161
161
161
161
0
0
0
0
0
0
204
204
204
204
204
204
