P3
# Created by GIMP version 2.10.20 PNM plug-in
4 4
255
200
255
200
200
200
255
200
200
200
255
200
200
200
200
255
200
200
255
255
200
200
255
200
200
200
255
255
200
255
255
200
255
255
200
255
255
200
200
200
200
200
200
255
255
255
255
255
255
