P3
# Created by GIMP version 2.10.20 PNM plug-in
4 4
255
157
140
109
38
34
26
0
0
0
80
71
55
38
34
26
38
34
26
80
71
55
80
71
55
196
175
136
196
175
136
196
175
136
196
175
136
0
0
0
0
0
0
255
246
192
255
246
192
